<?xml version="1.0" encoding="UTF-8"?>
<svg width="42px" height="46px" viewBox="0 0 42 46" version="1.1" xmlns="http://www.w3.org/2000/svg" xmlns:xlink="http://www.w3.org/1999/xlink">
    <!-- Generator: Sketch 51.2 (57519) - http://www.bohemiancoding.com/sketch -->
    <title>Group</title>
    <desc>Created with Sketch.</desc>
    <defs></defs>
    <g id="Page-1" stroke="none" stroke-width="1" fill="none" fill-rule="evenodd">
        <g id="Group" fill-rule="nonzero">
            <path d="M1.10634146,0 C1.10634146,0 0,0 0,1.10793934 L0,44.8920607 C0,44.8920607 0,46 1.10634146,46 L40.8936585,46 C40.8936585,46 42,46 42,44.8920607 L42,1.10793934 C42,1.10793934 42,0 40.8936585,7.28924305e-16 L1.10634146,0 Z" id="Shape" fill="#D20A0F"></path>
            <polygon id="Shape" fill="#FFFFFF" points="14.5278654 34.7557491 12.1708094 34.4285714 11.5585239 34.4285714 11.5585239 34.6010453 11.8076775 34.6010453 13.5767726 34.8085366 14.2526496 35.1445993 13.5767726 35.480662 11.8076775 35.6881533 9.62054641 35.6881533 7.85110382 35.480662 7.17522679 35.1445993 7.85110382 34.8085366 9.62054641 34.6010453 9.87630245 34.6010453 9.87039504 34.4285714 9.25706704 34.4285714 6.90001106 34.7557491 6 35.2857143 6.90001106 35.8154181 9.25706704 36.1428571 12.1708094 36.1428571 14.5278654 35.8154181 15.4285714 35.2857143"></polygon>
            <polygon id="Shape" fill="#FFFFFF" points="32.8483554 7.85714286 27.4285714 8.72050937 31.6211294 12.1945002 35.6844873 16.4285714 35.1022166 14.5429366 35.7471719 13.744455 35.1387826 12.068703 36 11.3304716"></polygon>
            <polygon id="Shape" fill="#FFFFFF" points="26.6355049 9.14374422 26.6341117 9.1440876 24.151287 7 16.2708962 8.99093849 10.6618998 17.7575234 10.2857143 20.676628 10.3431871 28.0044354 10.6288095 35.6900486 11.7190509 35.6852412 11.7908048 27.4244604 13.0639143 20.4523984 13.7326886 21.1072311 16.4022128 22.4285714 19.4360797 21.7057488 24.6546093 26.7902307 23.5626262 36.038583 19.800074 36.9245128 22.6942646 37.8571429 24.9663557 37.127796 26.8392721 25.8929692 24.5737991 20.2683448 27.8100398 18.0085369 27.1980417 16.178302 30.8449517 12.7798338 30.8571429 12.7860148"></polygon>
        </g>
    </g>
</svg>