<?xml version="1.0" encoding="UTF-8"?>
<svg width="42px" height="46px" viewBox="0 0 42 46" version="1.1" xmlns="http://www.w3.org/2000/svg" xmlns:xlink="http://www.w3.org/1999/xlink">
    <!-- Generator: Sketch 51.2 (57519) - http://www.bohemiancoding.com/sketch -->
    <title>ostrich</title>
    <desc>Created with Sketch.</desc>
    <defs></defs>
    <g id="Page-1" stroke="none" stroke-width="1" fill="none" fill-rule="evenodd">
        <g id="ostrich" fill-rule="nonzero">
            <g id="Group-3-Copy">
                <g id="Group-2" fill="#D20A0F">
                    <path d="M1.10634146,0 C1.10634146,0 0,0 0,1.10793934 L0,44.8920607 C0,44.8920607 0,46 1.10634146,46 L40.8936585,46 C40.8936585,46 42,46 42,44.8920607 L42,1.10793934 C42,1.10793934 42,0 40.8936585,7.28924305e-16 L1.10634146,0 Z" id="Shape"></path>
                </g>
                <g id="Group-4" transform="translate(7.000000, 12.000000)" fill="#FFFFFF">
                    <path d="M4.076,10.3835599 C4.1,10.4436027 4.132,10.4996427 4.168,10.5556828 C4.204,10.6077199 4.248,10.6597571 4.292,10.7077914 C4.48,10.8919228 4.736,11 5,11 C5.064,11 5.132,10.9919943 5.196,10.9799857 C5.26,10.9679771 5.324,10.9479628 5.384,10.9239457 C5.444,10.8999285 5.5,10.8679057 5.556,10.83188 C5.608,10.7958542 5.66,10.7518228 5.708,10.7077914 C5.752,10.6597571 5.796,10.6077199 5.832,10.5556828 C5.868,10.4996427 5.9,10.4436027 5.924,10.3835599 C5.948,10.323517 5.968,10.2594713 5.98,10.1954255 C5.992,10.1313798 6,10.0633312 6,9.99928549 C6,9.73509686 5.892,9.47891394 5.708,9.29077961 C5.66,9.24674817 5.608,9.20271674 5.556,9.16669101 C5.5,9.13066529 5.444,9.09864243 5.384,9.07462528 C5.324,9.05060813 5.26,9.03059384 5.196,9.01858526 C4.872,8.95453954 4.524,9.05861385 4.292,9.29077961 C4.108,9.47891394 4,9.73509686 4,9.99928549 C4,10.0633312 4.008,10.1313798 4.02,10.1954255 C4.032,10.2594713 4.052,10.323517 4.076,10.3835599 Z" id="Shape"></path>
                    <path d="M27.5090981,13.3824058 L27.4310702,13.1935782 C26.7527127,11.5516314 26.5481228,11.0560053 27.2888279,8.90285132 C27.4669108,8.3849666 27.5755525,7.83666171 27.6121398,7.27240479 C27.7327284,5.41380703 27.0577309,3.64016314 25.7103494,2.27941731 C24.2281923,0.781038799 22.0374373,-0.086306822 19.9922846,0.00680855474 C18.6908238,0.0683908358 17.5913395,0.479434013 16.6221507,0.842250103 C15.7347231,1.17427505 14.8965764,1.4881221 14.0352826,1.4881221 C14.0233358,1.4881221 14.0128823,1.48738014 13.9998154,1.4881221 C13.9990687,1.4881221 13.998322,1.48849308 13.9975753,1.48849308 C13.9968287,1.48849308 13.996082,1.4881221 13.994962,1.4881221 C13.123588,1.49294481 12.2753611,1.17835581 11.3778534,0.84262108 C10.4082913,0.479804991 9.30880702,0.0687618134 8.00771954,0.00717953234 C5.96182015,-0.0837099789 3.77218513,0.781409777 2.28928141,2.27978829 C0.942646539,3.64090509 0.266902397,5.414178 0.387864332,7.27277576 C0.424451584,7.83703269 0.533466661,8.38533758 0.711549509,8.9032223 C1.45188135,11.0567473 1.24729141,11.5523733 0.568933895,13.1943202 L0.491279319,13.3831478 C-0.154224339,14.9512701 -0.163557821,16.393631 0.462905532,17.6709068 C1.35817319,19.4953746 3.53772805,20.9047185 6.94071581,21.8592439 C8.80181224,22.3808384 11.2856386,22.9821931 13.996082,23 C13.997202,23 13.998322,23 13.9998154,23 C14.0009354,23 14.0020554,23 14.0035488,23 C16.1200093,22.9862738 18.2958308,22.6342161 21.058915,21.858131 C24.4615294,20.9039766 26.6410842,19.4950037 27.5367252,17.6701649 C28.1635619,16.392889 28.1542284,14.9505281 27.5090981,13.3824058 Z M26.5302025,17.1819584 C25.7805371,18.7096441 23.8376794,19.9227408 20.7546434,20.7871186 C18.0934809,21.5342675 16.0102475,21.873712 13.9998154,21.8870672 C11.9908766,21.873712 9.90726993,21.5346385 7.244614,20.7878606 C4.16195136,19.9231118 2.21909362,18.7100151 1.4694283,17.1823293 C0.981847166,16.1884803 1.00088747,15.0837091 1.52729589,13.8042073 L1.60495047,13.6164927 C2.32064191,11.8829144 2.6473138,11.0919901 1.77108646,8.54300306 C1.62511079,8.11823371 1.53588269,7.66675397 1.50564221,7.20080611 C1.37758683,5.22943116 2.29562818,3.86052383 3.08785418,3.0595832 C4.35384777,1.78008147 6.2168109,1.03701334 7.95433202,1.11825743 C9.07957669,1.17130723 10.0472722,1.53338137 10.9832338,1.88358422 C11.977063,2.25530377 12.9186248,2.60328075 13.9904819,2.59994196 C13.9919753,2.59994196 13.9934686,2.60031293 13.994962,2.60031293 C13.9968287,2.60031293 13.998322,2.60031293 14.0001887,2.60031293 C14.0016821,2.60031293 14.0031754,2.60031293 14.0046688,2.60031293 C14.0057888,2.60031293 14.0069088,2.59994196 14.0084022,2.59994196 C15.0813794,2.60958737 16.0225677,2.25530377 17.016397,1.88321324 C17.9523586,1.53301039 18.9200541,1.17093625 20.0452987,1.11788646 C21.7861799,1.03701334 23.6461563,1.77971049 24.9117766,3.05884124 C25.7043759,3.85978187 26.6220439,5.22868921 26.4939886,7.20006416 C26.4637481,7.66601202 26.37452,8.11749175 26.2285443,8.5422611 C25.3519436,11.0908772 25.6786155,11.8818014 26.394307,13.6153797 L26.4715882,13.8030944 C26.9987433,15.0833381 27.0177836,16.1888513 26.5302025,17.1819584 Z" id="Shape"></path>
                    <path d="M23.5577095,14.4909071 C22.8403594,14.4953517 21.6306184,14.5001667 19.5023238,13.6830994 C18.5772912,13.327901 17.799832,12.8675136 17.1915421,12.3145302 C16.9640633,12.1074855 16.7574607,11.8741435 16.5389803,11.6270973 C16.347495,11.4104226 16.1491709,11.1867106 15.9303305,10.9744805 C15.4642149,10.5233527 14.8238908,10.004815 14.0028795,10 C14.0017997,10 14.0007199,10 13.9996401,10 C13.9989202,10 13.9985603,10 13.9982003,10 C13.9978404,10 13.9971205,10 13.9967606,10 C13.1757492,10.004815 12.5350652,10.5233527 12.0689496,10.9744805 C11.8501093,11.1863402 11.6517852,11.4104226 11.4602998,11.6267269 C11.2414595,11.8741435 11.0348569,12.1078558 10.807738,12.3141598 C10.1911696,12.8752917 9.43530648,13.323086 8.49695638,13.682729 C6.36830179,14.4994259 5.16144031,14.4931294 4.44157065,14.4905367 C3.88943062,14.4834994 3.31461469,14.4849809 3.06266031,15.1216712 C2.9489209,15.4087188 2.99139321,15.7283603 3.17891926,15.9972592 C3.79800717,16.886181 6.05515849,17.3013815 7.88146782,17.1898959 L8.46672185,17.1528575 C10.2966305,17.0343346 10.4690393,17.0561873 10.7760637,17.4439794 C11.2486582,18.0414089 11.7651646,18.5706878 12.3111858,19.0162599 C12.3954105,19.0855217 12.4789154,19.1614504 12.5631402,19.2381199 C12.9133567,19.5566502 13.3495978,19.953702 13.961487,19.9985185 C13.9740847,19.9996296 13.9870423,20 13.9996401,20 C13.9996401,20 13.9996401,20 13.9996401,20 C13.9996401,20 14,20 14,20 C14,20 14.0003599,20 14.0003599,20 C14.0003599,20 14.0003599,20 14.0003599,20 C14.0125977,20 14.0255554,19.9996296 14.0377932,19.9985185 C14.6496824,19.9540724 15.0855634,19.5577614 15.43614,19.2388607 C15.5203647,19.1618208 15.6042295,19.0855217 15.6884543,19.0162599 C16.2348354,18.5710582 16.7509819,18.0417793 17.2239363,17.4439794 C17.5313206,17.0565577 17.7033695,17.034705 19.5332781,17.1528575 L20.1188921,17.1898959 C21.9430418,17.3010111 24.2023528,16.8865514 24.8210807,15.9972592 C25.0086068,15.7279899 25.0510791,15.4087188 24.9373397,15.1216712 C24.6850254,14.4849809 24.1130889,14.4860921 23.5577095,14.4909071 Z M20.1822406,16.0813363 L19.600226,16.0442979 C17.705889,15.9205897 17.0677246,15.8809586 16.386008,16.7432127 C15.9623647,17.2787881 15.502008,17.7510278 15.0171758,18.1462276 C14.9178338,18.2273418 14.8195716,18.3166043 14.7202296,18.4066077 C14.4704348,18.6340235 14.2335977,18.8436609 13.9992801,18.8803289 C13.7646026,18.8436609 13.5277655,18.6336531 13.2776108,18.4062373 C13.1786287,18.3162339 13.0807264,18.2273418 12.9817444,18.146598 C12.4965522,17.7506574 12.0361956,17.2784177 11.6129122,16.7435831 C10.9304758,15.8809586 10.2926712,15.92096 8.39833424,16.0442979 L7.81631961,16.0813363 C6.29379528,16.1750435 5.05273999,15.8728101 4.44481006,15.6020593 C5.18663574,15.6079855 6.56914543,15.6090966 8.87344821,14.724249 C9.92337811,14.3216415 10.8142168,13.7908811 11.5222086,13.1471536 C11.7932396,12.9004778 12.0297167,12.6334309 12.2579154,12.3752732 C12.4440017,12.1652654 12.6196499,11.9663691 12.8078958,11.7837698 C13.2851694,11.3219008 13.6526629,11.1144857 13.9992801,11.1111523 C14.3455374,11.1144857 14.7133908,11.3219008 15.1903045,11.7837698 C15.3789103,11.9659987 15.5545585,12.1645246 15.7402849,12.3749028 C15.9688435,12.6330605 16.2053207,12.9004778 16.4767116,13.1471536 C17.1843434,13.7908811 18.0751821,14.3216415 19.1247521,14.724249 C21.4294148,15.6090966 22.8122845,15.6083559 23.5541101,15.6020593 C22.9454603,15.8728101 21.7087243,16.1757843 20.1822406,16.0813363 Z" id="Shape"></path>
                    <path d="M22.0756,10.3833834 C22.1,10.4434434 22.132,10.4994995 22.1676,10.5555556 C22.2036,10.6076076 22.2476,10.6596597 22.2916,10.7077077 C22.3396,10.7517518 22.3916,10.7957958 22.4436,10.8318318 C22.5,10.8678679 22.5556,10.8998999 22.616,10.9239239 C22.6756,10.9479479 22.74,10.967968 22.804,10.97998 C22.868,10.991992 22.936,11 23,11 C23.064,11 23.132,10.991992 23.196,10.97998 C23.2596,10.967968 23.3236,10.9479479 23.384,10.9239239 C23.4436,10.8998999 23.5,10.8678679 23.556,10.8318318 C23.608,10.7957958 23.66,10.7517518 23.708,10.7077077 C23.8916,10.5195195 24,10.2632633 24,9.998999 C24,9.73473473 23.8916,9.47847848 23.708,9.29029029 C23.66,9.24624625 23.608,9.2022022 23.556,9.16616617 C23.5,9.13013013 23.444,9.0980981 23.384,9.07407407 C23.324,9.05005005 23.2596,9.03003003 23.196,9.01801802 C23.068,8.99399399 22.932,8.99399399 22.804,9.01801802 C22.74,9.03003003 22.676,9.05005005 22.616,9.07407407 C22.556,9.0980981 22.5,9.13013013 22.4436,9.16616617 C22.3916,9.2022022 22.3396,9.24624625 22.2916,9.29029029 C22.108,9.47847848 22,9.73473473 22,9.998999 C22,10.0630631 22.008,10.1311311 22.02,10.1951952 C22.032,10.2592593 22.052,10.3193193 22.0756,10.3833834 Z" id="Shape"></path>
                </g>
            </g>
        </g>
    </g>
</svg>