<svg width="42" height="46" viewBox="0 0 42 46" xmlns="http://www.w3.org/2000/svg"><g fill="none"><path d="M1.106 0S0 0 0 1.108v43.784S0 46 1.106 46h39.788S42 46 42 44.892V1.108S42 0 40.894 0H1.106z" fill="#D20A0F"/><path fill="#FFF" d="M14.528 34.756l-2.357-.327h-.612v.172h.249l1.769.208.676.336-.676.336-1.77.207H9.622l-1.77-.207-.676-.336.676-.336 1.77-.208h.255l-.006-.172h-.613l-2.357.327-.9.53.9.53 2.357.327h2.914l2.357-.328.9-.53zm18.32-26.899l-5.42.864 4.193 3.474 4.063 4.234-.582-1.886.645-.799-.608-1.675.861-.739z"/><path fill="#FFF" d="M26.636 9.144h-.002L24.151 7l-7.88 1.99-5.61 8.768-.375 2.919.057 7.327.286 7.686 1.09-.005.072-8.26 1.273-6.973.669.655 2.67 1.322 3.033-.723 5.219 5.084-1.092 9.249-3.763.886 2.894.932 2.272-.73 1.873-11.234-2.265-5.625 3.236-2.26-.612-1.83 3.647-3.398.012.006z"/></g></svg>