<svg width="42" height="46" viewBox="0 0 42 46" xmlns="http://www.w3.org/2000/svg"><g fill="none"><path d="M1.106 0S0 0 0 1.108v43.784S0 46 1.106 46h39.788S42 46 42 44.892V1.108S42 0 40.894 0H1.106z" fill="#D20A0F"/><g fill="#FFF"><path d="M11.076 22.384a1.02 1.02 0 0 0 .216.324 1.019 1.019 0 0 0 .904.272 1.016 1.016 0 0 0 .36-.148c.052-.036.104-.08.152-.124a1.02 1.02 0 0 0 .272-.512 1.02 1.02 0 0 0-.272-.905 1.02 1.02 0 0 0-.512-.272 1.016 1.016 0 0 0-.904.272 1.02 1.02 0 0 0-.272.904c.012.064.032.129.056.189z"/><path d="M34.51 25.382l-.079-.188c-.678-1.642-.883-2.138-.142-4.291a6.258 6.258 0 0 0 .323-1.63c.12-1.86-.554-3.633-1.902-4.994-1.482-1.498-3.673-2.365-5.718-2.272-1.301.061-2.4.472-3.37.835-.887.332-1.725.646-2.587.646h-.04c-.871.005-1.72-.31-2.617-.645-.97-.363-2.07-.774-3.37-.836-2.046-.09-4.236.774-5.719 2.273-1.346 1.36-2.022 3.134-1.901 4.993.036.564.145 1.112.324 1.63.74 2.154.535 2.65-.143 4.291l-.078.19c-.645 1.567-.655 3.01-.028 4.287.895 1.824 3.075 3.234 6.478 4.188 1.86.522 4.345 1.123 7.055 1.141h.008c2.116-.014 4.292-.366 7.055-1.142 3.403-.954 5.582-2.363 6.478-4.188.627-1.277.617-2.72-.028-4.288zm-.98 3.8c-.75 1.528-2.692 2.74-5.775 3.605-2.662.747-4.745 1.087-6.755 1.1-2.01-.013-4.093-.352-6.755-1.1-3.083-.864-5.026-2.077-5.776-3.605-.487-.994-.468-2.098.058-3.378l.078-.188c.716-1.733 1.042-2.524.166-5.073a5.157 5.157 0 0 1-.265-1.342c-.128-1.972.79-3.34 1.582-4.141 1.266-1.28 3.129-2.023 4.866-1.942 1.126.053 2.093.415 3.03.766.993.371 1.935.72 3.006.716h.018c1.073.01 2.015-.345 3.008-.717.936-.35 1.904-.712 3.03-.765 1.74-.081 3.6.662 4.866 1.94.792.802 1.71 2.17 1.582 4.142-.03.466-.12.917-.265 1.342-.877 2.549-.55 3.34.165 5.073l.078.188c.527 1.28.546 2.386.058 3.379z"/><path d="M30.558 26.49c-.718.005-1.927.01-4.056-.807-.925-.355-1.702-.815-2.31-1.368a8.794 8.794 0 0 1-.653-.688c-.192-.217-.39-.44-.609-.653-.466-.45-1.106-.97-1.927-.974h-.006c-.821.005-1.462.523-1.928.974-.219.212-.417.436-.609.653-.219.247-.425.48-.652.687-.617.561-1.373 1.01-2.311 1.369-2.129.816-3.336.81-4.055.808-.553-.008-1.127-.006-1.38.63a.92.92 0 0 0 .117.876c.619.89 2.876 1.304 4.702 1.193l.586-.037c1.83-.119 2.002-.097 2.31.291.472.597.988 1.127 1.534 1.572.084.07.168.145.252.222.35.319.787.716 1.398.76a.422.422 0 0 0 .076 0c.613-.044 1.049-.44 1.4-.76a6.47 6.47 0 0 1 .251-.222 10.142 10.142 0 0 0 1.536-1.572c.307-.387.48-.41 2.31-.291l.585.037c1.824.111 4.083-.303 4.702-1.193a.92.92 0 0 0 .116-.875c-.252-.637-.824-.636-1.38-.631zm-3.376 1.591l-.582-.037c-1.894-.123-2.532-.163-3.214.7a9.052 9.052 0 0 1-1.369 1.402c-.1.081-.197.17-.297.26-.25.228-.486.438-.72.474-.235-.036-.472-.246-.722-.474a7.422 7.422 0 0 0-.296-.26 9.086 9.086 0 0 1-1.37-1.402c-.682-.863-1.32-.823-3.214-.7l-.582.037c-1.522.094-2.763-.208-3.371-.479.742.006 2.124.007 4.428-.878 1.05-.402 1.941-.933 2.65-1.577a9.97 9.97 0 0 0 .735-.772c.186-.21.362-.409.55-.591.477-.462.845-.67 1.191-.673.347.003.714.21 1.191.673.189.182.365.38.55.59.229.26.465.526.737.773.707.644 1.598 1.175 2.648 1.577 2.304.885 3.687.884 4.43.878-.61.27-1.846.574-3.373.48zm1.894-5.698c.024.06.056.116.092.173.036.052.08.104.124.152a1.023 1.023 0 0 0 .512.272c.064.012.132.02.196.02a1.085 1.085 0 0 0 .384-.076 1.035 1.035 0 0 0 .324-.216c.184-.188.292-.445.292-.709 0-.264-.108-.52-.292-.709a1.02 1.02 0 0 0-.512-.272 1.016 1.016 0 0 0-.752.148c-.052.036-.104.08-.152.124a1.022 1.022 0 0 0-.272.905c.012.064.032.124.056.188z"/></g></g></svg>